<svg xmlns="http://www.w3.org/2000/svg" width="215" height="24" viewBox="0 0 215 24">
    <g fill="#000" fill-rule="evenodd">
        <path d="M0 11.859v-.064C.004 5.339 4.715-.005 11.139 0c3.974.003 6.36 1.504 8.646 3.657l-1.177 1.238c-1.939-1.925-4.163-3.36-7.501-3.363-5.344-.003-9.384 4.46-9.388 10.199v.065c-.005 5.77 4.094 10.272 9.404 10.276 3.212.002 5.408-1.268 7.667-3.548l1.113 1.108c-2.355 2.38-4.901 3.975-8.844 3.972C4.7 23.599-.004 18.412 0 11.859M34.095.96l1.653.001-.014 22.821-1.654-.001L34.095.96M58.638 2.53l-7.758-.004V.96l17.174.012-.001 1.564-7.76-.004-.014 21.257-1.653-.002.012-21.257M89.69 14.757L80.16.96l2.067.001 8.323 12.264L98.922.971l1.972.003-9.55 13.751-.005 9.065-1.654-.002.006-9.03M124.105 12.052c2.385.002 3.755-1.302 3.756-3.225v-.065c.001-2.153-1.46-3.26-3.846-3.263l-4.865-.003-.005 6.553 4.96.003zM114.255.96l10.175.007c2.832.003 5.025.819 6.487 2.319 1.24 1.273 1.906 3.066 1.904 5.218v.066c-.002 3.683-1.942 5.996-4.774 7.07l5.432 8.156-5.723-.005-4.765-7.306-3.848-.002-.006 7.302-4.897-.002.015-22.823zM164.459 11.871v-.064c.003-3.913-2.794-7.174-6.736-7.177-3.945-.003-6.68 3.189-6.683 7.102v.065c-.003 3.912 2.792 7.175 6.736 7.176 3.944.003 6.68-3.19 6.683-7.102zm-18.539-.013v-.063c.003-6.49 5-11.8 11.87-11.795 6.867.004 11.793 5.257 11.789 11.745v.065c-.004 6.488-5 11.798-11.869 11.794-6.87-.005-11.796-5.257-11.79-11.746zM180.48.535l5.249.003 4.6 15.458L195.332.48l4.197.003 4.983 15.523 4.62-15.45 5.122.004-7.617 22.978-4.26-.003-5.016-14.934-5.033 14.928-4.262-.003L180.48.536"/>
    </g>
</svg>
