<svg xmlns="http://www.w3.org/2000/svg" viewBox="0 0 22.63 31.87"><defs><style>.cls-1{fill:none;stroke-linejoin:round;}.cls-1,.cls-2{stroke:#21a800;stroke-linecap:round;stroke-width:0.8px;}.cls-2{fill:#9bd2fa;stroke-miterlimit:10;}</style></defs><g id="Layer_2" data-name="Layer 2"><g id="Icons"><rect class="cls-1" x="2.86" y="16.3" width="17.01" height="1.55" rx="0.62"/><rect class="cls-1" x="2.86" y="7.58" width="17.01" height="1.56" rx="0.62"/><line class="cls-1" x1="11.36" y1="25.01" x2="11.36" y2="26.63"/><line class="cls-1" x1="0.4" y1="28.98" x2="8.85" y2="28.98"/><line class="cls-1" x1="13.78" y1="28.98" x2="22.23" y2="28.98"/><path class="cls-1" d="M13.78,29.05a2.42,2.42,0,1,0-2.42,2.42A2.42,2.42,0,0,0,13.78,29.05Z"/><path class="cls-1" d="M21.44,17.85H1.28a.49.49,0,0,0-.48.49v6.19a.48.48,0,0,0,.48.48H21.44a.48.48,0,0,0,.49-.48V18.34A.49.49,0,0,0,21.44,17.85Zm-3.37,5a1.4,1.4,0,1,1,1.39-1.39A1.39,1.39,0,0,1,18.07,22.9Z"/><path class="cls-1" d="M21.44,9.13H1.28a.48.48,0,0,0-.48.48V15.8a.49.49,0,0,0,.48.49H21.44a.49.49,0,0,0,.49-.49V9.61A.48.48,0,0,0,21.44,9.13Zm-3.37,4.93a1.39,1.39,0,1,1,1.39-1.39A1.39,1.39,0,0,1,18.07,14.06Z"/><path class="cls-1" d="M21.44.4H1.29A.49.49,0,0,0,.8.89V7.07a.49.49,0,0,0,.48.49H21.44a.49.49,0,0,0,.49-.49V.89A.49.49,0,0,0,21.44.4Zm-3.37,5A1.39,1.39,0,1,1,19.46,4,1.39,1.39,0,0,1,18.07,5.37Z"/><rect class="cls-2" x="7.48" y="3.89" width="0.35" height="0.35" transform="translate(15.32 8.14) rotate(180)"/><rect class="cls-2" x="4.08" y="3.89" width="0.35" height="0.35" transform="translate(8.51 8.14) rotate(180)"/><rect class="cls-2" x="7.48" y="12.59" width="0.35" height="0.35" transform="translate(15.32 25.53) rotate(180)"/><rect class="cls-2" x="4.08" y="12.59" width="0.35" height="0.35" transform="translate(8.51 25.53) rotate(180)"/><rect class="cls-2" x="7.48" y="21.46" width="0.35" height="0.35" transform="translate(15.32 43.27) rotate(180)"/><rect class="cls-2" x="4.08" y="21.46" width="0.35" height="0.35" transform="translate(8.51 43.27) rotate(180)"/></g></g></svg>