<svg xmlns="http://www.w3.org/2000/svg" viewBox="0 0 31.38 31.32"><defs><style>.cls-1{fill:none;stroke:#21a800;stroke-linecap:round;stroke-linejoin:round;stroke-width:0.8px;}</style></defs><g id="Layer_2" data-name="Layer 2"><g id="Icons"><line class="cls-1" x1="15.73" y1="21.28" x2="15.73" y2="17.14"/><line class="cls-1" x1="0.4" y1="15.4" x2="4.45" y2="15.4"/><line class="cls-1" x1="7.65" y1="15.49" x2="14.01" y2="15.49"/><line class="cls-1" x1="17.4" y1="15.49" x2="23.75" y2="15.49"/><line class="cls-1" x1="27.17" y1="15.4" x2="30.53" y2="15.4"/><path class="cls-1" d="M17.41,15.44a1.7,1.7,0,1,0-1.7,1.7A1.7,1.7,0,0,0,17.41,15.44Z"/><rect class="cls-1" x="10.22" y="21.27" width="10.99" height="8.13" rx="0.43"/><line class="cls-1" x1="12.59" y1="30.92" x2="18.82" y2="30.92"/><line class="cls-1" x1="5.95" y1="13.67" x2="5.95" y2="10.08"/><line class="cls-1" x1="25.51" y1="13.73" x2="25.51" y2="10.08"/><path class="cls-1" d="M7.66,15.39A1.71,1.71,0,1,0,6,17.1,1.7,1.7,0,0,0,7.66,15.39Z"/><rect class="cls-1" x="0.52" y="0.4" width="10.99" height="8.13" rx="0.43"/><line class="cls-1" x1="2.9" y1="10.05" x2="9.13" y2="10.05"/><path class="cls-1" d="M27.17,15.39a1.71,1.71,0,1,0-1.71,1.71A1.71,1.71,0,0,0,27.17,15.39Z"/><rect class="cls-1" x="19.99" y="0.4" width="10.99" height="8.13" rx="0.43"/><line class="cls-1" x1="22.37" y1="10.05" x2="28.6" y2="10.05"/></g></g></svg>