<svg xmlns="http://www.w3.org/2000/svg" viewBox="0 0 39.17 25.64"><defs><style>.cls-1{fill:none;stroke:#21a800;stroke-linecap:round;stroke-linejoin:round;stroke-width:0.8px;}</style></defs><g id="Layer_2" data-name="Layer 2"><g id="Icons"><path class="cls-1" d="M33.51.4H5.66A2.37,2.37,0,0,0,3.29,2.77v20.4H5.14V3a.57.57,0,0,1,.56-.57H33.3a.57.57,0,0,1,.57.57V23.17h2V2.77A2.38,2.38,0,0,0,33.51.4Z"/><path class="cls-1" d="M33.3,2.44H5.7A.57.57,0,0,0,5.14,3V23.17H33.87V3A.57.57,0,0,0,33.3,2.44Z"/><path class="cls-1" d="M22.53,23.17l-.5.52h-5.5l-.5-.52H.4v.52a1.51,1.51,0,0,0,1.48,1.55H37.29a1.51,1.51,0,0,0,1.48-1.55v-.52Z"/><path class="cls-1" d="M13.43,12.43l.24,0a4.32,4.32,0,0,1-.13-1.08,4.34,4.34,0,0,1,4.23-4.44,4.12,4.12,0,0,1,2.92,1.23,3.29,3.29,0,0,1,1.4-.3,3.64,3.64,0,0,1,3.55,3.73v0A3.21,3.21,0,0,1,25.38,18H13.43a2.78,2.78,0,0,1,0-5.56Z"/><line class="cls-1" x1="14.06" y1="23.17" x2="24.95" y2="23.17"/><line class="cls-1" x1="28.87" y1="2.44" x2="27.01" y2="4.31"/><line class="cls-1" x1="9.63" y1="21.3" x2="7.77" y2="23.17"/><line class="cls-1" x1="32.63" y1="2.44" x2="27.6" y2="7.47"/></g></g></svg>