<svg xmlns="http://www.w3.org/2000/svg" viewBox="0 0 36.4 29.64"><defs><style>.cls-1{fill:none;stroke:#072539;stroke-linecap:round;stroke-linejoin:round;stroke-width:0.8px;}</style></defs><g id="Layer_2" data-name="Layer 2"><g id="Icons"><path class="cls-1" d="M32,14a13,13,0,0,1-7.73-3.87A13,13,0,0,1,16.5,14S14,22.51,24.23,29.24C34.47,22.51,32,14,32,14Z"/><path class="cls-1" d="M25.22,25.87c5.1-4.49,4.41-9.74,4.41-9.74A11,11,0,0,1,25.43,14"/><path class="cls-1" d="M36,15.52a6.13,6.13,0,0,0-5.62-6.11V9.35a7.17,7.17,0,0,0-10-6.59A8.54,8.54,0,0,0,6,8.94,8.67,8.67,0,0,0,6.21,11l-.47,0a5.34,5.34,0,0,0,0,10.68H17.37A11.9,11.9,0,0,1,16.5,14a13,13,0,0,0,7.73-3.87A13,13,0,0,0,32,14a11.9,11.9,0,0,1-.82,7.52,5.27,5.27,0,0,0,3-1.61A6.23,6.23,0,0,0,36,15.52Z"/></g></g></svg>