<svg xmlns="http://www.w3.org/2000/svg" viewBox="0 0 229.97 196.28"><defs><style>.cls-1{fill:none;}.cls-1,.cls-2,.cls-3{stroke:#21a800;stroke-linecap:round;stroke-width:0.8px;}.cls-1,.cls-2{stroke-linejoin:round;}.cls-2{fill:#a5d2fa;}.cls-3{fill:#9bd2fa;stroke-miterlimit:10;}</style></defs><g id="Layer_2" data-name="Layer 2"><g id="Icons"><line class="cls-1" x1="167.33" y1="79.67" x2="167.33" y2="75.53"/><line class="cls-1" x1="152" y1="73.79" x2="156.05" y2="73.79"/><line class="cls-1" x1="159.25" y1="73.88" x2="165.6" y2="73.88"/><line class="cls-1" x1="168.99" y1="73.88" x2="175.34" y2="73.88"/><line class="cls-1" x1="178.77" y1="73.79" x2="182.12" y2="73.79"/><path class="cls-1" d="M169,73.83a1.71,1.71,0,1,0-1.71,1.7A1.71,1.71,0,0,0,169,73.83Z"/><rect class="cls-1" x="161.81" y="79.66" width="10.99" height="8.13" rx="0.43"/><line class="cls-1" x1="164.19" y1="89.31" x2="170.42" y2="89.31"/><line class="cls-1" x1="157.55" y1="72.06" x2="157.55" y2="68.46"/><line class="cls-1" x1="177.11" y1="72.12" x2="177.11" y2="68.46"/><path class="cls-1" d="M159.25,73.78a1.7,1.7,0,1,0-1.7,1.71A1.7,1.7,0,0,0,159.25,73.78Z"/><rect class="cls-1" x="152.11" y="58.79" width="10.99" height="8.13" rx="0.43"/><line class="cls-1" x1="154.49" y1="68.44" x2="160.72" y2="68.44"/><path class="cls-1" d="M178.76,73.78a1.71,1.71,0,0,0-3.41,0,1.71,1.71,0,1,0,3.41,0Z"/><rect class="cls-1" x="171.58" y="58.79" width="10.99" height="8.13" rx="0.43"/><line class="cls-1" x1="173.96" y1="68.44" x2="180.19" y2="68.44"/><path class="cls-1" d="M65,25.9l.82-2-1.27-.53a6.41,6.41,0,0,0,0-2.89L65.88,20l-.8-2-1.28.52a6.31,6.31,0,0,0-2-2.05l.53-1.27-2-.83-.53,1.27a6.46,6.46,0,0,0-2.9,0l-.52-1.27-2,.8L55,16.46a6.57,6.57,0,0,0-2.06,2L51.62,18l-.82,2,1.27.53a6.41,6.41,0,0,0,0,2.89l-1.28.52.81,2,1.27-.52a6.34,6.34,0,0,0,2,2.05l-.53,1.27,2,.83.53-1.27a6.41,6.41,0,0,0,2.89,0l.52,1.27,2-.8-.52-1.27a6.54,6.54,0,0,0,2.05-2Z"/><path class="cls-1" d="M61.67,23.34a3.62,3.62,0,1,1-1.94-4.74A3.61,3.61,0,0,1,61.67,23.34Z"/><path class="cls-1" d="M79,18.69a4.84,4.84,0,1,1,.06-6.85A4.85,4.85,0,0,1,79,18.69Z"/><path class="cls-1" d="M67.78,27.8a8.31,8.31,0,0,1-10.57,5.14"/><path class="cls-1" d="M63,8.73A12.15,12.15,0,0,1,65.1,4.9,12.38,12.38,0,0,1,78.68,1.08"/><path class="cls-1" d="M61.67,23.34a3.62,3.62,0,1,1-1.94-4.74A3.61,3.61,0,0,1,61.67,23.34Z"/><path class="cls-1" d="M84.09,16.72l1.84,0,0-2.84-1.85,0a8.46,8.46,0,0,0-1.45-3.58L84,9,82,7,80.67,8.27a8.49,8.49,0,0,0-3.56-1.51V4.92l-2.84,0,0,1.84a8.66,8.66,0,0,0-3.58,1.46L69.39,6.87l-2,2,1.29,1.31a8.62,8.62,0,0,0-1.51,3.56H65.3l0,2.84h1.84a8.5,8.5,0,0,0,1.45,3.59l-1.31,1.29,2,2,1.31-1.29a8.75,8.75,0,0,0,3.56,1.51v1.84l2.84,0,0-1.84a8.64,8.64,0,0,0,3.58-1.45l1.29,1.31,2-2-1.29-1.32A8.56,8.56,0,0,0,84.09,16.72Zm-5.08,2a4.84,4.84,0,1,1,.06-6.85A4.85,4.85,0,0,1,79,18.69Z"/><path class="cls-1" d="M76.43,15.23a.82.82,0,1,1-.81-.81A.81.81,0,0,1,76.43,15.23Z"/><path class="cls-1" d="M59.15,21.94a.82.82,0,0,1-.82.81.82.82,0,0,1,0-1.63A.82.82,0,0,1,59.15,21.94Z"/><line class="cls-1" x1="15.88" y1="171.24" x2="21.63" y2="171.24"/><line class="cls-1" x1="15.88" y1="191.24" x2="21.63" y2="191.24"/><line class="cls-1" x1="8.03" y1="178.37" x2="8.03" y2="184.12"/><line class="cls-1" x1="29.47" y1="178.37" x2="29.47" y2="184.12"/><rect class="cls-1" x="2.98" y="186.8" width="10.14" height="7.5" rx="0.4"/><line class="cls-1" x1="5.18" y1="195.71" x2="10.93" y2="195.71"/><rect class="cls-1" x="24.38" y="186.8" width="10.14" height="7.5" rx="0.4"/><line class="cls-1" x1="26.58" y1="195.71" x2="32.33" y2="195.71"/><rect class="cls-1" x="24.38" y="166.78" width="10.14" height="7.5" rx="0.4"/><line class="cls-1" x1="26.58" y1="175.68" x2="32.33" y2="175.68"/><rect class="cls-1" x="2.98" y="166.78" width="10.14" height="7.5" rx="0.4"/><line class="cls-1" x1="5.18" y1="175.68" x2="10.93" y2="175.68"/><path class="cls-1" d="M23.56,180.19h-.18a3.49,3.49,0,0,0,.1-.79A3.3,3.3,0,0,0,17.91,177a2.83,2.83,0,0,0-1.09-.22,2.76,2.76,0,0,0-2.77,2.76v0a2.37,2.37,0,0,0,.2,4.73h9.31a2.06,2.06,0,1,0,0-4.12Z"/><path class="cls-1" d="M21.05,127.43a2.77,2.77,0,0,1,.3,0,4.91,4.91,0,0,1,2,.4,5.91,5.91,0,0,1,4.1-1.64h.06a12.82,12.82,0,0,0,.11-1.65H21.22A25.19,25.19,0,0,1,21.05,127.43Z"/><path class="cls-1" d="M6.76,124.51a23.64,23.64,0,0,1,.87-6.46A12.08,12.08,0,0,1,4,115.29,13.56,13.56,0,0,0,.4,124.51H6.76Z"/><path class="cls-1" d="M7.63,131a23.62,23.62,0,0,1-.87-6.45H.4A13.51,13.51,0,0,0,4,133.72,12.42,12.42,0,0,1,7.63,131Z"/><path class="cls-1" d="M20.35,118.05a23.64,23.64,0,0,1,.87,6.46h6.36A13.56,13.56,0,0,0,24,115.29,12,12,0,0,1,20.35,118.05Z"/><path class="cls-1" d="M14,124.51H6.76A23.62,23.62,0,0,0,7.63,131,13.88,13.88,0,0,1,14,129.44Z"/><path class="cls-1" d="M15.35,124.51h5.87a23.64,23.64,0,0,0-.87-6.46A13.89,13.89,0,0,1,14,119.58v4.93Z"/><path class="cls-1" d="M14,119.58a13.89,13.89,0,0,1-6.36-1.53,23.64,23.64,0,0,0-.87,6.46H14Z"/><path class="cls-1" d="M14,124.51v4.93a13.88,13.88,0,0,1,3.12.35,4.94,4.94,0,0,1,3.94-2.36,25.19,25.19,0,0,0,.17-2.92H14Z"/><path class="cls-1" d="M20.35,118.05A12,12,0,0,0,24,115.29a13.54,13.54,0,0,0-10-4.37C16.74,110.92,19.13,113.8,20.35,118.05Z"/><path class="cls-1" d="M7.63,118.05c1.22-4.25,3.61-7.13,6.36-7.13a13.56,13.56,0,0,0-10,4.37A12.08,12.08,0,0,0,7.63,118.05Z"/><path class="cls-1" d="M7.63,118.05A13.89,13.89,0,0,0,14,119.58v-8.66C11.24,110.92,8.85,113.8,7.63,118.05Z"/><path class="cls-1" d="M20.35,118.05c-1.22-4.25-3.61-7.13-6.36-7.13v8.66A13.89,13.89,0,0,0,20.35,118.05Z"/><path class="cls-1" d="M7.63,131A12.42,12.42,0,0,0,4,133.72,13.53,13.53,0,0,0,12.68,138a1.21,1.21,0,0,1,0-.18C10.47,137.07,8.65,134.49,7.63,131Z"/><path class="cls-1" d="M14,133.41a4.28,4.28,0,0,1,2.37-1v0a4.88,4.88,0,0,1,.75-2.6,13.88,13.88,0,0,0-3.12-.35Z"/><path class="cls-1" d="M14,133.41v-4A13.88,13.88,0,0,0,7.63,131c1,3.53,2.84,6.11,5,6.89a4.09,4.09,0,0,1-.19-1.17A4.24,4.24,0,0,1,14,133.41Z"/><path class="cls-2" d="M12.63,137.85a1.21,1.21,0,0,0,0,.18c.43,0,.87.07,1.31.07A4,4,0,0,1,12.63,137.85Z"/><path class="cls-1" d="M33.51,133.52l-.33,0a6.17,6.17,0,0,0,.18-1.44,5.95,5.95,0,0,0-10-4.3,4.91,4.91,0,0,0-2-.4,5,5,0,0,0-5,5v0a4.27,4.27,0,0,0,.36,8.53H33.51a3.72,3.72,0,1,0,0-7.43Z"/><path class="cls-1" d="M30.94,132.05a4.39,4.39,0,0,0-.6-1.44,4,4,0,0,0-4.43-1.71"/><rect class="cls-1" x="109.81" y="127.3" width="17.01" height="1.55" rx="0.62"/><rect class="cls-1" x="109.81" y="118.57" width="17.01" height="1.56" rx="0.62"/><line class="cls-1" x1="118.32" y1="136.01" x2="118.32" y2="137.63"/><line class="cls-1" x1="107.35" y1="139.98" x2="115.8" y2="139.98"/><line class="cls-1" x1="120.74" y1="139.98" x2="129.18" y2="139.98"/><path class="cls-1" d="M120.74,140.05a2.42,2.42,0,1,0-2.42,2.42A2.43,2.43,0,0,0,120.74,140.05Z"/><path class="cls-1" d="M128.4,128.85H108.24a.49.49,0,0,0-.49.49v6.18a.49.49,0,0,0,.49.49H128.4a.49.49,0,0,0,.48-.49v-6.18A.49.49,0,0,0,128.4,128.85ZM125,133.9a1.4,1.4,0,1,1,1.4-1.4A1.4,1.4,0,0,1,125,133.9Z"/><path class="cls-1" d="M128.4,120.12H108.24a.49.49,0,0,0-.49.49v6.19a.49.49,0,0,0,.49.49H128.4a.49.49,0,0,0,.48-.49v-6.19A.49.49,0,0,0,128.4,120.12ZM125,125.06a1.4,1.4,0,1,1,1.4-1.39A1.4,1.4,0,0,1,125,125.06Z"/><path class="cls-1" d="M128.4,111.4H108.24a.49.49,0,0,0-.49.49v6.18a.49.49,0,0,0,.49.49H128.4a.49.49,0,0,0,.48-.49v-6.18A.49.49,0,0,0,128.4,111.4Zm-3.38,5a1.4,1.4,0,1,1,1.4-1.39A1.4,1.4,0,0,1,125,116.37Z"/><rect class="cls-3" x="114.44" y="114.89" width="0.35" height="0.35" transform="translate(229.23 230.14) rotate(180)"/><rect class="cls-3" x="111.03" y="114.89" width="0.35" height="0.35" transform="translate(222.42 230.14) rotate(180)"/><rect class="cls-3" x="114.44" y="123.59" width="0.35" height="0.35" transform="translate(229.23 247.52) rotate(180)"/><rect class="cls-3" x="111.03" y="123.59" width="0.35" height="0.35" transform="translate(222.42 247.52) rotate(180)"/><rect class="cls-3" x="114.44" y="132.46" width="0.35" height="0.35" transform="translate(229.23 265.27) rotate(180)"/><rect class="cls-3" x="111.03" y="132.46" width="0.35" height="0.35" transform="translate(222.42 265.27) rotate(180)"/><path class="cls-1" d="M81.93,180.45a13,13,0,0,1-7.73-3.87,13,13,0,0,1-7.73,3.87S64,188.93,74.2,195.66C84.44,188.93,81.93,180.45,81.93,180.45Z"/><path class="cls-1" d="M75.19,192.29c5.1-4.49,4.41-9.74,4.41-9.74a10.89,10.89,0,0,1-4.2-2.18"/><path class="cls-1" d="M86,181.94a6.13,6.13,0,0,0-5.62-6.11v-.06a7.17,7.17,0,0,0-7.17-7.17,7.06,7.06,0,0,0-2.83.59,8.46,8.46,0,0,0-5.89-2.37,8.55,8.55,0,0,0-8.54,8.55,8.74,8.74,0,0,0,.26,2.06,3.71,3.71,0,0,0-.47,0,5.34,5.34,0,0,0,0,10.68H67.34a11.9,11.9,0,0,1-.87-7.63,13,13,0,0,0,7.73-3.87,13,13,0,0,0,7.73,3.87,11.9,11.9,0,0,1-.82,7.52,5.27,5.27,0,0,0,3-1.61A6.27,6.27,0,0,0,86,181.94Z"/><path class="cls-1" d="M169.88,174.29a2.8,2.8,0,1,0-.11,4A2.79,2.79,0,0,0,169.88,174.29ZM168.6,177a1.1,1.1,0,1,1,0-1.55A1.09,1.09,0,0,1,168.6,177Z"/><path class="cls-1" d="M167.09,175.42a1.1,1.1,0,1,0,1.55,0A1.09,1.09,0,0,0,167.09,175.42Z"/><path class="cls-1" d="M175.34,176.58a7.69,7.69,0,0,0-.44-2.72,7.78,7.78,0,0,0-7.2-5.17"/><path class="cls-1" d="M177.46,176.22v0a9.62,9.62,0,1,0-18.63,3.34h18A9.57,9.57,0,0,0,177.46,176.22Z"/><path class="cls-1" d="M154.41,179.53h4.42a9.52,9.52,0,0,1,.35-7.47h-4.59a1.5,1.5,0,0,0-1.5,1.5v7.29A1.32,1.32,0,0,1,154.41,179.53Z"/><path class="cls-1" d="M179.92,176.19h-2.46v0a9.57,9.57,0,0,1-.6,3.31h4.43a1.32,1.32,0,0,1,1.31,1.32v-2A2.68,2.68,0,0,0,179.92,176.19Z"/><path class="cls-1" d="M181.29,179.53H154.41a1.32,1.32,0,0,0-1.32,1.32v13.56a1.72,1.72,0,0,0,.11.5,1.12,1.12,0,0,0,.05.13,1.81,1.81,0,0,0,.22.32l.14.14a2.27,2.27,0,0,0,.32.22l.13.06a1.71,1.71,0,0,0,.51.1h26.55a1.71,1.71,0,0,0,.51-.1l.13-.06a1.81,1.81,0,0,0,.32-.22l.14-.14a1.81,1.81,0,0,0,.22-.32l.06-.13a2.11,2.11,0,0,0,.1-.5V180.85A1.32,1.32,0,0,0,181.29,179.53Z"/><line class="cls-1" x1="153.09" y1="192.5" x2="159.67" y2="192.5"/><line class="cls-1" x1="153.09" y1="190.21" x2="156.39" y2="190.21"/><line class="cls-1" x1="182.6" y1="182.92" x2="179.27" y2="182.92"/><path class="cls-1" d="M226.18,132.62a25.82,25.82,0,0,1-15.37,0c-2.09-.75-3.39-1.51-3.39-2.69v5.19c0,1.18,1.3,2.23,3.39,3a25.82,25.82,0,0,0,15.37,0c2.09-.76,3.39-1.81,3.39-3v-5.19C229.57,131.11,228.27,131.87,226.18,132.62Z"/><path class="cls-1" d="M226.18,125.57a25.82,25.82,0,0,1-15.37,0c-2.09-.75-3.39-1.52-3.39-2.69v4.65c0,1.18,1.3,2.23,3.39,3a25.82,25.82,0,0,0,15.37,0c2.09-.76,3.39-1.81,3.39-3v-4.65C229.57,124.05,228.27,124.82,226.18,125.57Z"/><path class="cls-1" d="M226.18,117.73a25.82,25.82,0,0,1-15.37,0c-2.09-.75-3.39-1.81-3.39-3h0v5.73c0,1.18,1.3,2.23,3.39,3a25.82,25.82,0,0,0,15.37,0c2.09-.76,3.39-1.81,3.39-3v-5.73h0C229.57,115.92,228.27,117,226.18,117.73Z"/><path class="cls-1" d="M210.81,117.73a25.82,25.82,0,0,0,15.37,0c2.09-.75,3.39-1.81,3.39-3h0c0-2.3-5-4.16-11.08-4.16s-11.07,1.86-11.07,4.16h0C207.42,115.92,208.72,117,210.81,117.73Z"/><line class="cls-2" x1="207.42" y1="130.93" x2="207.42" y2="114.75"/><line class="cls-2" x1="229.57" y1="130.93" x2="229.57" y2="114.75"/><rect class="cls-1" x="226.83" y="120.64" width="0.25" height="0.25"/><rect class="cls-1" x="226.83" y="127.88" width="0.25" height="0.25"/><rect class="cls-1" x="226.83" y="135.41" width="0.25" height="0.25"/><path class="cls-1" d="M207.42,117.71a6.73,6.73,0,0,0,2.93,1.81,20.28,20.28,0,0,0,4.36,1"/><path class="cls-1" d="M207.42,125.46a6.73,6.73,0,0,0,2.93,1.81,20.28,20.28,0,0,0,4.36,1"/><path class="cls-1" d="M207.42,132.63a6.55,6.55,0,0,0,2.93,1.81,19.7,19.7,0,0,0,4.36,1"/></g></g></svg>