<svg xmlns="http://www.w3.org/2000/svg" viewBox="0 0 30.31 30.08"><defs><style>.cls-1{fill:none;stroke:#21a800;stroke-linecap:round;stroke-linejoin:round;stroke-width:0.8px;}</style></defs><g id="Layer_2" data-name="Layer 2"><g id="Icons"><path class="cls-1" d="M17.19,8.09a2.8,2.8,0,1,0-.11,4A2.79,2.79,0,0,0,17.19,8.09Zm-1.28,2.72a1.1,1.1,0,1,1,0-1.55A1.09,1.09,0,0,1,15.91,10.81Z"/><path class="cls-1" d="M14.4,9.22a1.1,1.1,0,1,0,1.55,0A1.09,1.09,0,0,0,14.4,9.22Z"/><path class="cls-1" d="M22.66,10.38a7.92,7.92,0,0,0-.45-2.72A7.76,7.76,0,0,0,15,2.49"/><path class="cls-1" d="M24.77,10v0A9.62,9.62,0,1,0,6.14,13.33h18A9.59,9.59,0,0,0,24.77,10Z"/><path class="cls-1" d="M1.72,13.33H6.14a9.52,9.52,0,0,1,.35-7.47H1.9A1.5,1.5,0,0,0,.4,7.36v7.29A1.32,1.32,0,0,1,1.72,13.33Z"/><path class="cls-1" d="M27.23,10H24.77v0a9.59,9.59,0,0,1-.6,3.32H28.6a1.32,1.32,0,0,1,1.31,1.32v-2A2.68,2.68,0,0,0,27.23,10Z"/><path class="cls-1" d="M28.6,13.33H1.72A1.32,1.32,0,0,0,.4,14.65V28.2a1.72,1.72,0,0,0,.11.51.34.34,0,0,0,.06.12,1.42,1.42,0,0,0,.21.33l.14.14a1.6,1.6,0,0,0,.32.21l.13.06a1.72,1.72,0,0,0,.51.11H28.44a1.72,1.72,0,0,0,.5-.11.38.38,0,0,0,.13-.06,1.14,1.14,0,0,0,.32-.22l.14-.13a1.9,1.9,0,0,0,.22-.33l.06-.12a1.45,1.45,0,0,0,.1-.51V14.65A1.32,1.32,0,0,0,28.6,13.33Z"/><line class="cls-1" x1="0.4" y1="26.3" x2="6.98" y2="26.3"/><line class="cls-1" x1="0.4" y1="24.01" x2="3.7" y2="24.01"/><line class="cls-1" x1="29.91" y1="16.72" x2="26.58" y2="16.72"/></g></g></svg>