<svg xmlns="http://www.w3.org/2000/svg" viewBox="0 0 35.97 33.8"><defs><style>.cls-1{fill:none;stroke:#21a800;stroke-linecap:round;stroke-linejoin:round;stroke-width:0.8px;}</style></defs><g id="Layer_2" data-name="Layer 2"><g id="Icons"><path class="cls-1" d="M14.66,25.9l.82-2-1.27-.53a6.27,6.27,0,0,0,0-2.89L15.5,20l-.81-2-1.27.52a6.24,6.24,0,0,0-2-2.05l.54-1.27-2-.83-.54,1.27a6.41,6.41,0,0,0-2.89,0L6,14.39l-2,.8.52,1.27a6.54,6.54,0,0,0-2,2L1.24,18l-.82,2,1.27.53a6.41,6.41,0,0,0,0,2.89L.4,23.87l.8,2,1.28-.52a6.24,6.24,0,0,0,2,2.05L4,28.64l2,.83.54-1.27a6.41,6.41,0,0,0,2.89,0l.52,1.27,2-.8-.52-1.27a6.54,6.54,0,0,0,2.05-2Z"/><path class="cls-1" d="M11.29,23.34A3.62,3.62,0,1,1,9.35,18.6,3.62,3.62,0,0,1,11.29,23.34Z"/><path class="cls-1" d="M28.63,18.69a4.84,4.84,0,1,1,.06-6.85A4.85,4.85,0,0,1,28.63,18.69Z"/><path class="cls-1" d="M17.39,27.8A8.14,8.14,0,0,1,16,30.38a8.29,8.29,0,0,1-9.12,2.56"/><path class="cls-1" d="M12.57,8.73A12.37,12.37,0,0,1,28.3,1.08"/><path class="cls-1" d="M11.29,23.34A3.62,3.62,0,1,1,9.35,18.6,3.62,3.62,0,0,1,11.29,23.34Z"/><path class="cls-1" d="M33.71,16.72l1.84,0,0-2.84-1.84,0a8.46,8.46,0,0,0-1.45-3.58L33.59,9l-2-2L30.28,8.27a8.38,8.38,0,0,0-3.56-1.51l0-1.84-2.84,0,0,1.84A8.66,8.66,0,0,0,20.3,8.19L19,6.87l-2,2,1.29,1.31a8.62,8.62,0,0,0-1.51,3.56H14.92l0,2.84h1.85a8.5,8.5,0,0,0,1.45,3.59l-1.32,1.29,2,2,1.31-1.29a8.75,8.75,0,0,0,3.56,1.51v1.84l2.84,0V23.73a8.63,8.63,0,0,0,3.59-1.45l1.29,1.31,2-2L32.2,20.28A8.56,8.56,0,0,0,33.71,16.72Zm-5.08,2a4.84,4.84,0,1,1,.06-6.85A4.85,4.85,0,0,1,28.63,18.69Z"/><path class="cls-1" d="M26.05,15.23a.82.82,0,0,1-.82.82.82.82,0,0,1-.81-.82.81.81,0,0,1,.81-.81A.82.82,0,0,1,26.05,15.23Z"/><path class="cls-1" d="M8.77,21.94A.82.82,0,1,1,8,21.12.82.82,0,0,1,8.77,21.94Z"/></g></g></svg>