<svg xmlns="http://www.w3.org/2000/svg" viewBox="0 0 22.95 29.48"><defs><style>.cls-1{fill:none;}.cls-1,.cls-2{stroke:#21a800;stroke-linecap:round;stroke-linejoin:round;stroke-width:0.8px;}.cls-2{fill:#a5d2fa;}</style></defs><g id="Layer_2" data-name="Layer 2"><g id="Icons"><path class="cls-1" d="M19.16,22.43a23.39,23.39,0,0,1-7.69,1.17,23.37,23.37,0,0,1-7.68-1.17C1.7,21.68.4,20.91.4,19.74v5.19c0,1.17,1.3,2.23,3.39,3a23.39,23.39,0,0,0,7.68,1.16,23.41,23.41,0,0,0,7.69-1.16c2.09-.76,3.39-1.82,3.39-3V19.74C22.55,20.91,21.25,21.68,19.16,22.43Z"/><path class="cls-1" d="M19.16,15.38a23.39,23.39,0,0,1-7.69,1.17,23.37,23.37,0,0,1-7.68-1.17C1.7,14.63.4,13.86.4,12.68v4.66c0,1.17,1.3,2.23,3.39,3a23.39,23.39,0,0,0,7.68,1.16,23.41,23.41,0,0,0,7.69-1.16c2.09-.76,3.39-1.82,3.39-3V12.68C22.55,13.86,21.25,14.63,19.16,15.38Z"/><path class="cls-1" d="M19.16,7.54a23.39,23.39,0,0,1-7.69,1.17A23.37,23.37,0,0,1,3.79,7.54C1.7,6.78.4,5.73.4,4.55h0v5.74c0,1.17,1.3,2.23,3.39,3a23.11,23.11,0,0,0,7.68,1.17,23.13,23.13,0,0,0,7.69-1.17c2.09-.75,3.39-1.81,3.39-3V4.55h0C22.55,5.73,21.25,6.78,19.16,7.54Z"/><path class="cls-1" d="M3.79,7.54a23.37,23.37,0,0,0,7.68,1.17,23.39,23.39,0,0,0,7.69-1.17c2.09-.76,3.39-1.81,3.39-3h0c0-2.29-5-4.15-11.08-4.15S.4,2.26.4,4.55h0C.4,5.73,1.7,6.78,3.79,7.54Z"/><line class="cls-2" x1="0.4" y1="20.74" x2="0.4" y2="4.55"/><line class="cls-2" x1="22.55" y1="20.74" x2="22.55" y2="4.55"/><rect class="cls-1" x="19.81" y="10.45" width="0.25" height="0.25"/><rect class="cls-1" x="19.81" y="17.69" width="0.25" height="0.25"/><rect class="cls-1" x="19.81" y="25.22" width="0.25" height="0.25"/><path class="cls-1" d="M.4,7.51A6.55,6.55,0,0,0,3.33,9.32a20.25,20.25,0,0,0,4.36,1"/><path class="cls-1" d="M.4,15.26a6.55,6.55,0,0,0,2.93,1.81,20.25,20.25,0,0,0,4.36,1"/><path class="cls-1" d="M.4,22.44a6.64,6.64,0,0,0,2.93,1.81,19.7,19.7,0,0,0,4.36,1"/></g></g></svg>