<svg xmlns="http://www.w3.org/2000/svg" viewBox="0 0 37.63 30.84"><defs><style>.cls-1{fill:none;}.cls-1,.cls-2{stroke:#21a800;stroke-linecap:round;stroke-linejoin:round;stroke-width:0.8px;}.cls-2{fill:#a5d2fa;}</style></defs><g id="Layer_2" data-name="Layer 2"><g id="Icons"><path class="cls-1" d="M21.05,16.91c.1,0,.19,0,.3,0a4.91,4.91,0,0,1,2,.41,5.92,5.92,0,0,1,4.1-1.65h.06A12.82,12.82,0,0,0,27.58,14H21.22A25.06,25.06,0,0,1,21.05,16.91Z"/><path class="cls-1" d="M6.76,14a23.62,23.62,0,0,1,.87-6.45A12.42,12.42,0,0,1,4,4.78,13.51,13.51,0,0,0,.4,14H6.76Z"/><path class="cls-1" d="M7.63,20.45A23.64,23.64,0,0,1,6.76,14H.4A13.56,13.56,0,0,0,4,23.21,12.08,12.08,0,0,1,7.63,20.45Z"/><path class="cls-1" d="M20.35,7.54A23.62,23.62,0,0,1,21.22,14h6.36A13.51,13.51,0,0,0,24,4.78,12.29,12.29,0,0,1,20.35,7.54Z"/><path class="cls-1" d="M14,14H6.76a23.64,23.64,0,0,0,.87,6.46A13.89,13.89,0,0,1,14,18.92Z"/><path class="cls-1" d="M15.35,14h5.87a23.62,23.62,0,0,0-.87-6.45A13.88,13.88,0,0,1,14,9.06V14Z"/><path class="cls-1" d="M14,9.06A13.88,13.88,0,0,1,7.63,7.54,23.62,23.62,0,0,0,6.76,14H14Z"/><path class="cls-1" d="M14,14v4.93a14.48,14.48,0,0,1,3.12.35,4.94,4.94,0,0,1,3.94-2.36A25.06,25.06,0,0,0,21.22,14H14Z"/><path class="cls-1" d="M20.35,7.54A12.29,12.29,0,0,0,24,4.78,13.51,13.51,0,0,0,14,.4C16.74.4,19.13,3.29,20.35,7.54Z"/><path class="cls-1" d="M7.63,7.54C8.85,3.29,11.24.4,14,.4A13.53,13.53,0,0,0,4,4.78,12.42,12.42,0,0,0,7.63,7.54Z"/><path class="cls-1" d="M7.63,7.54A13.88,13.88,0,0,0,14,9.06V.4C11.24.4,8.85,3.29,7.63,7.54Z"/><path class="cls-1" d="M20.35,7.54C19.13,3.29,16.74.4,14,.4V9.06A13.88,13.88,0,0,0,20.35,7.54Z"/><path class="cls-1" d="M7.63,20.45A12.08,12.08,0,0,0,4,23.21a13.57,13.57,0,0,0,8.66,4.3,1.21,1.21,0,0,1,0-.18C10.47,26.56,8.65,24,7.63,20.45Z"/><path class="cls-1" d="M14,22.89a4.27,4.27,0,0,1,2.37-1v0a4.91,4.91,0,0,1,.75-2.6A14.48,14.48,0,0,0,14,18.92Z"/><path class="cls-1" d="M14,22.89v-4a13.89,13.89,0,0,0-6.36,1.53c1,3.52,2.84,6.11,5,6.88a4.09,4.09,0,0,1-.19-1.17A4.26,4.26,0,0,1,14,22.89Z"/><path class="cls-2" d="M12.63,27.33a1.21,1.21,0,0,0,0,.18,11.38,11.38,0,0,0,1.31.07A4,4,0,0,1,12.63,27.33Z"/><path class="cls-1" d="M33.51,23l-.33,0a6.15,6.15,0,0,0,.18-1.43,5.94,5.94,0,0,0-10-4.3,4.91,4.91,0,0,0-2-.41,5,5,0,0,0-5,5v0a4.27,4.27,0,0,0,.36,8.53H33.51a3.72,3.72,0,0,0,0-7.44Z"/><path class="cls-1" d="M30.94,21.53a4.48,4.48,0,0,0-.6-1.44,4,4,0,0,0-4.43-1.7"/></g></g></svg>