<svg xmlns="http://www.w3.org/2000/svg" viewBox="0 0 64 64"><defs><style>.cls-1{fill:#21a800;}</style></defs><g id="Layer_2" data-name="Layer 2"><g id="icons"><path class="cls-1" d="M51,42V40A11,11,0,0,0,62,29c0-5.7-3.87-10-9-10H52V18c0-3.87-2.1-8-8-8H42.41l-.29-.52A14.7,14.7,0,0,0,29,2,15,15,0,0,0,14,17v1H13a11,11,0,0,0,0,22v2a13,13,0,0,1-1-26A17,17,0,0,1,29,0,16.71,16.71,0,0,1,43.58,8H44c5.75,0,9.57,3.52,10,9,5.78.5,10,5.47,10,12A13,13,0,0,1,51,42Z"/><path class="cls-1" d="M45,64H19a4,4,0,0,1-4-4V38a4,4,0,0,1,4-4H45a4,4,0,0,1,4,4V60A4,4,0,0,1,45,64ZM19,36a2,2,0,0,0-2,2V60a2,2,0,0,0,2,2H45a2,2,0,0,0,2-2V38a2,2,0,0,0-2-2Z"/><rect class="cls-1" x="31" y="40" width="2" height="2"/><rect class="cls-1" x="35" y="40" width="2" height="2"/><rect class="cls-1" x="27" y="40" width="2" height="2"/><rect class="cls-1" x="15.76" y="53" width="8.49" height="2" transform="translate(-32.33 29.96) rotate(-45)"/><rect class="cls-1" x="23.76" y="53" width="8.49" height="2" transform="translate(-29.98 35.62) rotate(-45)"/><rect class="cls-1" x="31.76" y="53" width="8.49" height="2" transform="translate(-27.64 41.27) rotate(-45)"/><rect class="cls-1" x="39.76" y="53" width="8.49" height="2" transform="translate(-25.3 46.93) rotate(-45)"/><rect class="cls-1" x="16" y="50" width="32" height="2"/><rect class="cls-1" x="16" y="56" width="32" height="2"/><path class="cls-1" d="M39,35H37V27a5,5,0,0,0-10,0v8H25V27a7,7,0,0,1,14,0Z"/><path class="cls-1" d="M45,35H43V27a11,11,0,0,0-22,0v8H19V27a13,13,0,0,1,26,0Z"/></g></g></svg>