<svg xmlns="http://www.w3.org/2000/svg" viewBox="0 0 32.34 29.73"><defs><style>.cls-1{fill:none;stroke:#21a800;stroke-linecap:round;stroke-linejoin:round;stroke-width:0.8px;}</style></defs><g id="Layer_2" data-name="Layer 2"><g id="Icons"><line class="cls-1" x1="13.3" y1="4.86" x2="19.05" y2="4.86"/><line class="cls-1" x1="13.3" y1="24.87" x2="19.05" y2="24.87"/><line class="cls-1" x1="5.45" y1="11.99" x2="5.45" y2="17.74"/><line class="cls-1" x1="26.89" y1="11.99" x2="26.89" y2="17.74"/><rect class="cls-1" x="0.4" y="20.42" width="10.14" height="7.5" rx="0.4"/><line class="cls-1" x1="2.6" y1="29.33" x2="8.35" y2="29.33"/><rect class="cls-1" x="21.8" y="20.42" width="10.14" height="7.5" rx="0.4"/><line class="cls-1" x1="24" y1="29.33" x2="29.75" y2="29.33"/><rect class="cls-1" x="21.8" y="0.4" width="10.14" height="7.5" rx="0.4"/><line class="cls-1" x1="24" y1="9.31" x2="29.75" y2="9.31"/><rect class="cls-1" x="0.4" y="0.4" width="10.14" height="7.5" rx="0.4"/><line class="cls-1" x1="2.6" y1="9.31" x2="8.35" y2="9.31"/><path class="cls-1" d="M21,13.82H20.8a3.42,3.42,0,0,0,.1-.79,3.3,3.3,0,0,0-5.57-2.39,2.87,2.87,0,0,0-1.09-.22,2.77,2.77,0,0,0-2.77,2.77v0a2.37,2.37,0,0,0,.2,4.73H21a2.06,2.06,0,0,0,0-4.12Z"/></g></g></svg>