<?xml version="1.0" encoding="utf-8"?>
<!-- Generator: Adobe Illustrator 25.2.3, SVG Export Plug-In . SVG Version: 6.00 Build 0)  -->
<svg version="1.1" id="Layer_1" xmlns="http://www.w3.org/2000/svg" xmlns:xlink="http://www.w3.org/1999/xlink" x="0px" y="0px"
	 viewBox="0 0 1366 768" style="enable-background:new 0 0 1366 768;" xml:space="preserve">
<style type="text/css">
	.st0{fill:#072539;}
</style>
<g>
	<g>
		<g>
			<g>
				<g>
					<polygon class="st0" points="641.7,673.9 305.2,673.9 242,610.7 242,563.7 592.2,563.7 619.8,591.2 641.7,591.2 641.7,618.8 
						608.4,618.8 580.8,591.2 269.6,591.2 269.6,599.3 316.6,646.3 641.7,646.3 					"/>
				</g>
				<g>
					<path class="st0" d="M352.2,536.1h-27.6v-441c0-30.4,24.7-55.1,55.1-55.1h261.8v27.6H379.8c-15.2,0-27.6,12.4-27.6,27.6V536.1z
						"/>
				</g>
			</g>
			<g>
				<g>
					<polygon class="st0" points="1060.8,729 724.3,729 724.3,701.5 1049.4,701.5 1096.4,654.4 1096.4,646.3 785.2,646.3 
						757.6,673.9 724.3,673.9 724.3,646.3 746.2,646.3 773.8,618.8 1124,618.8 1124,665.8 					"/>
				</g>
				<g>
					<path class="st0" d="M1041.3,591.2h-27.6v-441c0-15.2-12.4-27.6-27.6-27.6H724.3V95.1h261.8c30.4,0,55.1,24.7,55.1,55.1V591.2z
						"/>
				</g>
			</g>
			<g>
				<rect x="669.2" y="481" class="st0" width="27.6" height="275.6"/>
			</g>
			<g>
				<rect x="669.2" y="288" class="st0" width="27.6" height="110.2"/>
			</g>
			<g>
				<rect x="669.2" y="12.4" class="st0" width="27.6" height="192.9"/>
			</g>
		</g>
		<g>
			<g>
				<path class="st0" d="M683,453.4c-60.8,0-110.2-49.5-110.2-110.2h27.6c0,45.6,37.1,82.7,82.7,82.7V453.4z"/>
			</g>
			<g>
				<path class="st0" d="M793.2,343.2h-27.6c0-45.6-37.1-82.7-82.7-82.7v-27.6C743.8,232.9,793.2,282.4,793.2,343.2z"/>
			</g>
			<g>
				<rect x="683" y="425.8" class="st0" width="110.2" height="27.6"/>
			</g>
			<g>
				<rect x="572.8" y="232.9" class="st0" width="110.2" height="27.6"/>
			</g>
			<g>
				<polygon class="st0" points="747.9,504.5 728.4,485 773.8,439.6 728.4,394.2 747.9,374.8 812.7,439.6 				"/>
			</g>
			<g>
				<polygon class="st0" points="618.1,311.6 553.3,246.7 618.1,181.8 637.6,201.3 592.2,246.7 637.6,292.1 				"/>
			</g>
		</g>
		<g>
			<polygon class="st0" points="641.7,536.1 379.8,536.1 379.8,95.1 641.7,95.1 641.7,122.7 407.4,122.7 407.4,508.5 641.7,508.5 
							"/>
		</g>
		<g>
			<polygon class="st0" points="986.2,591.2 724.3,591.2 724.3,563.7 958.6,563.7 958.6,177.8 724.3,177.8 724.3,150.2 986.2,150.2 
							"/>
		</g>
	</g>
</g>
</svg>
