<?xml version="1.0" encoding="utf-8"?>
<!-- Generator: Adobe Illustrator 22.1.0, SVG Export Plug-In . SVG Version: 6.00 Build 0)  -->
<svg version="1.1" id="Layer_1" xmlns="http://www.w3.org/2000/svg" xmlns:xlink="http://www.w3.org/1999/xlink" x="0px" y="0px"
	 viewBox="0 0 311.7 142.6" style="enable-background:new 0 0 311.7 142.6;" xml:space="preserve">
<style type="text/css">
	.st0{fill:#186D00;}
	.st1{fill:#21A800;}
	.st2{fill:#FFFFFF;}
	.st3{fill:#DBDBDB;}
</style>
<g>
	<g>
		<path class="st0" d="M215.3,10.9c15,0.2,27.1,12.5,27.1,27.5c0,0,0,0,0,0c0,0,0,0,0,0c0,14-10.5,25.6-24,27.3v11.4
			c0,1.9-1.6,3.5-3.5,3.5s-3.5-1.6-3.5-3.5V65.8c-7-0.9-13.1-4.3-17.5-9.4c1.2-2.6,2.1-5.4,2.8-8.2c3.5,6.4,10.3,10.8,18.1,10.8
			c11.3,0,20.6-9.2,20.6-20.6c0,0,0,0,0,0c0,0,0,0,0,0c0-11.3-9.2-20.6-20.6-20.6c-11.2,0-20.3,8.9-20.5,20c0,0.2,0,0.3,0,0.5
			c0,0,0,0,0,0c0,0.4,0,0.8,0,1.2c-0.1,1.7-0.2,3.3-0.5,5c0,0.1,0,0.1,0,0.2c0,0.1,0,0.2-0.1,0.3c-0.5,2.8-1.2,5.4-2.2,8
			c-5.3,13.1-17.6,22.7-32.2,24v3.5v12.6c0,1.9-1.6,3.5-3.5,3.5c-1.9,0-3.5-1.6-3.5-3.5V76.8c-8.9-0.8-17.2-4.7-23.7-11.1
			c-2.7-2.7-5-5.8-6.7-9c0,0,0,0,0,0c1.8-2.4,3.2-5.1,4.2-7.9c0,0,0,0,0,0c4.3,12.4,16,21.3,29.8,21.3c16.9,0,30.8-13.5,31.5-30.2
			c0-0.4,0-0.8,0-1.2c0,0,0,0,0,0c0,0,0,0,0,0c0,0,0,0,0,0c0,0,0,0,0,0c0-5.3,1.5-10.3,4.1-14.5c4.9-7.8,13.5-13,23.4-13L215.3,10.9
			z"/>
		<path class="st1" d="M124.4,38.5C124.4,38.5,124.4,38.5,124.4,38.5C124.4,38.5,124.4,38.5,124.4,38.5c0-0.2,0-0.3,0-0.4
			c0,0,0,0,0,0c0-0.1,0-0.1,0-0.2C124.7,20.8,138.7,7,155.9,7c13.7,0,25.4,8.8,29.7,21.1c1-2.9,2.4-5.5,4.2-7.9
			c-1.8-3.2-4-6.3-6.7-8.9C175.8,4,166.1,0,155.9,0c-10.3,0-19.9,4-27.2,11.3c-0.7,0.7-1.3,1.4-2,2.1c0,0,0,0,0,0
			c-0.2,0.2-0.4,0.4-0.6,0.7c-0.2,0.2-0.3,0.4-0.4,0.6c0,0-0.1,0.1-0.1,0.1c-2.2,2.8-4,5.9-5.4,9.2c-0.9,2.2-1.6,4.4-2.1,6.8
			c0,0,0,0.1,0,0.1c-0.1,0.2-0.1,0.5-0.1,0.7c0,0.1,0,0.2,0,0.2c0,0.2-0.1,0.4-0.1,0.6c0,0.1,0,0.3-0.1,0.4c0,0.1,0,0.3-0.1,0.4
			c0,0.2-0.1,0.4-0.1,0.5c0,0.1,0,0.2,0,0.3c0,0.2-0.1,0.4-0.1,0.7c0,0.1,0,0.1,0,0.2c0,0.3,0,0.5-0.1,0.8c0,0,0,0.1,0,0.1
			c0,0.3,0,0.6-0.1,0.9c0,0,0,0,0,0c0,0.3,0,0.6,0,0.9c0,0.1,0,0.1,0,0.2c0,0.2,0,0.4,0,0.7c0,0,0,0,0,0c0,11.3-9.2,20.6-20.6,20.6
			s-20.6-9.2-20.6-20.6c0,0,0,0,0,0c0,0,0,0,0,0c0-11.3,9.2-20.6,20.6-20.6c7.9,0,14.7,4.4,18.2,11c0.7-2.8,1.6-5.6,2.8-8.2
			c-5.1-6-12.6-9.8-21-9.8c-15.2,0-27.6,12.4-27.6,27.6c0,0,0,0,0,0c0,0,0,0,0,0c0,14,10.5,25.6,24,27.3v11.4c0,1.9,1.6,3.5,3.5,3.5
			c1.9,0,3.5-1.6,3.5-3.5v-7.8v-0.1v-3.5v-0.1c8.4-1,15.7-5.9,20-12.8C122.8,48.7,124.3,43.8,124.4,38.5
			C124.4,38.5,124.4,38.5,124.4,38.5z"/>
	</g>
	<g>
		<path class="st2" d="M35.4,111.8h19.2c1.1,0,2,0.4,2.7,1.1c0.7,0.7,1.1,1.7,1.1,2.7v6.7c0,1.1-0.4,2-1.1,2.7
			c-0.7,0.7-1.7,1.1-2.7,1.1H39.2c-0.2,0-0.6,0-1.2-0.1v8.7h-2.6V111.8z M55.8,122.4v-6.7c0-0.3-0.1-0.6-0.4-0.9
			c-0.2-0.2-0.5-0.4-0.9-0.4H39.2c-0.3,0-0.6,0.1-0.9,0.4c-0.2,0.2-0.4,0.5-0.4,0.9v6.7c0,0.3,0.1,0.6,0.4,0.9
			c0.2,0.2,0.5,0.4,0.9,0.4h15.3c0.3,0,0.6-0.1,0.9-0.4C55.7,123.1,55.8,122.8,55.8,122.4z"/>
		<path class="st2" d="M75.5,116.3c1.1,0,2,0.4,2.8,1.1c0.8,0.8,1.1,1.7,1.1,2.7v14.7h-15c-1.1,0-2-0.4-2.7-1.1
			c-0.8-0.8-1.1-1.7-1.1-2.7v-6.7h16.2v-4.1c0-0.3-0.1-0.6-0.4-0.9c-0.2-0.2-0.5-0.4-0.9-0.4h-15v-2.6H75.5z M76.8,132.2v-5.3H63.2
			v4.1c0,0.3,0.1,0.6,0.4,0.9c0.2,0.2,0.5,0.4,0.9,0.4H76.8z"/>
		<path class="st2" d="M86.4,116.3h10.4v2.6H86.4c-0.3,0-0.6,0.1-0.9,0.4c-0.2,0.2-0.4,0.5-0.4,0.9v14.7h-2.6v-14.7
			c0-1.1,0.4-2,1.1-2.7S85.4,116.3,86.4,116.3z"/>
		<path class="st2" d="M114,116.3h3.5l-8.4,9.3l8.4,9.3H114l-7.3-8h-5.1v8H99v-24.6h2.6v14h5.1L114,116.3z"/>
		<path class="st2" d="M138.3,120.2v0.3h-2.7v-0.3c0-0.3-0.1-0.6-0.4-0.9c-0.2-0.2-0.5-0.4-0.9-0.4h-11.1c-0.3,0-0.6,0.1-0.9,0.4
			c-0.2,0.2-0.4,0.5-0.4,0.9v2.8c0,0.3,0.1,0.6,0.4,0.9c0.2,0.2,0.5,0.4,0.9,0.4h11.1c1.1,0,2,0.4,2.8,1.1s1.1,1.7,1.1,2.7v2.8
			c0,1.1-0.4,2-1.1,2.7c-0.8,0.8-1.7,1.1-2.8,1.1h-11.1c-1.1,0-2-0.4-2.7-1.1c-0.8-0.8-1.1-1.7-1.1-2.7v-0.3h2.6v0.3
			c0,0.3,0.1,0.6,0.4,0.9c0.2,0.2,0.5,0.4,0.9,0.4h11.1c0.3,0,0.6-0.1,0.9-0.4c0.2-0.2,0.4-0.5,0.4-0.9v-2.8c0-0.3-0.1-0.6-0.4-0.9
			c-0.2-0.2-0.5-0.4-0.9-0.4h-11.1c-1.1,0-2-0.4-2.7-1.1c-0.8-0.8-1.1-1.7-1.1-2.7v-2.8c0-1.1,0.4-2,1.1-2.7
			c0.8-0.8,1.7-1.1,2.7-1.1h11.1c1.1,0,2,0.4,2.8,1.1S138.3,119.1,138.3,120.2z"/>
		<path class="st2" d="M141.5,110.2h2.6v2.6h-2.6V110.2z M141.5,134.8v-18.5h2.6v18.5H141.5z"/>
		<path class="st2" d="M163.5,110.2h2.6v24.6h-15c-1.1,0-2-0.4-2.8-1.1c-0.8-0.8-1.1-1.7-1.1-2.7v-10.8c0-1.1,0.4-2,1.1-2.7
			s1.7-1.1,2.8-1.1h12.4V110.2z M151.1,132.2h11.1c0.3,0,0.6-0.1,0.9-0.4c0.2-0.2,0.4-0.5,0.4-0.9v-10.8c0-0.3-0.1-0.6-0.4-0.9
			c-0.2-0.2-0.5-0.4-0.9-0.4h-11.1c-0.3,0-0.6,0.1-0.9,0.4c-0.2,0.2-0.4,0.5-0.4,0.9V131c0,0.3,0.1,0.6,0.4,0.9
			C150.5,132.1,150.8,132.2,151.1,132.2z"/>
		<path class="st2" d="M183.8,116.3c1.1,0,2,0.4,2.8,1.1c0.8,0.8,1.1,1.7,1.1,2.7v6.7h-16.3v4.1c0,0.3,0.1,0.6,0.4,0.9
			c0.2,0.2,0.5,0.4,0.9,0.4h15v2.6h-15c-1.1,0-2-0.4-2.7-1.1c-0.8-0.8-1.1-1.7-1.1-2.7v-10.8c0-1.1,0.4-2,1.1-2.7
			c0.8-0.8,1.7-1.1,2.7-1.1H183.8z M171.4,124.3H185v-4.1c0-0.3-0.1-0.6-0.4-0.9c-0.2-0.2-0.5-0.4-0.9-0.4h-11.1
			c-0.3,0-0.6,0.1-0.9,0.4c-0.2,0.2-0.4,0.5-0.4,0.9V124.3z"/>
		<path class="st1" d="M189.9,111.8h23v2.6h-10.2v20.4h-2.6v-20.4h-10.2V111.8z"/>
		<path class="st1" d="M230.2,116.3c1.1,0,2,0.4,2.8,1.1c0.8,0.8,1.1,1.7,1.1,2.7v6.7h-16.3v4.1c0,0.3,0.1,0.6,0.4,0.9
			c0.2,0.2,0.5,0.4,0.9,0.4h15v2.6h-15c-1.1,0-2-0.4-2.7-1.1c-0.8-0.8-1.1-1.7-1.1-2.7v-10.8c0-1.1,0.4-2,1.1-2.7
			c0.8-0.8,1.7-1.1,2.7-1.1H230.2z M217.8,124.3h13.6v-4.1c0-0.3-0.1-0.6-0.4-0.9c-0.2-0.2-0.5-0.4-0.9-0.4H219
			c-0.3,0-0.6,0.1-0.9,0.4c-0.2,0.2-0.4,0.5-0.4,0.9V124.3z"/>
		<path class="st1" d="M240.5,132.2h15v2.6h-15c-1.1,0-2-0.4-2.7-1.1c-0.8-0.8-1.1-1.7-1.1-2.7v-10.8c0-1.1,0.4-2,1.1-2.7
			c0.8-0.8,1.7-1.1,2.7-1.1h15v2.6h-15c-0.3,0-0.6,0.1-0.9,0.4c-0.2,0.2-0.4,0.5-0.4,0.9V131c0,0.3,0.1,0.6,0.4,0.9
			C239.9,132.1,240.2,132.2,240.5,132.2z"/>
		<path class="st1" d="M273.5,116.3c1.1,0,2,0.4,2.7,1.1c0.8,0.8,1.1,1.7,1.1,2.7v14.7h-2.6v-14.7c0-0.3-0.1-0.6-0.4-0.9
			c-0.2-0.2-0.5-0.4-0.9-0.4h-11.1c-0.3,0-0.6,0.1-0.9,0.4c-0.3,0.2-0.4,0.5-0.4,0.9v14.7h-2.6v-24.6h2.6v6.1H273.5z"/>
	</g>
</g>
</svg>
